<?xml version="1.0" standalone="no"?>
<!DOCTYPE svg PUBLIC "-//W3C//DTD SVG 20010904//EN"
 "http://www.w3.org/TR/2001/REC-SVG-20010904/DTD/svg10.dtd">
<svg version="1.0" xmlns="http://www.w3.org/2000/svg"
 width="1024.000000pt" height="1024.000000pt" viewBox="0 0 1024.000000 1024.000000"
 preserveAspectRatio="xMidYMid meet">
<metadata>
Created by potrace 1.11, written by Peter Selinger 2001-2013
</metadata>
<g transform="translate(0.000000,1024.000000) scale(0.100000,-0.100000)"
fill="#000000" stroke="none">
<path d="M4909 8606 c-2 -2 -42 -7 -89 -10 -47 -3 -96 -8 -110 -11 -14 -2 -45
-7 -70 -10 -25 -2 -56 -7 -70 -10 -13 -2 -40 -7 -60 -10 -40 -6 -38 -6 -167
-34 -50 -12 -104 -26 -120 -32 -15 -6 -29 -10 -31 -9 -4 3 -144 -40 -180 -56
-18 -8 -39 -14 -46 -14 -11 0 -108 -36 -161 -60 -11 -5 -42 -18 -70 -30 -83
-35 -300 -144 -303 -152 -2 -5 -7 -8 -12 -8 -7 0 -78 -40 -128 -72 -15 -10
-40 -25 -56 -34 -16 -9 -55 -35 -87 -58 -31 -22 -67 -48 -79 -56 -12 -8 -28
-19 -34 -25 -6 -5 -29 -23 -51 -39 -22 -17 -42 -33 -45 -36 -3 -3 -18 -16 -35
-29 -134 -103 -373 -344 -498 -503 -23 -29 -44 -55 -47 -58 -29 -27 -240 -342
-240 -359 0 -5 -3 -11 -7 -13 -24 -10 -200 -375 -253 -523 -12 -33 -25 -69
-30 -80 -53 -121 -142 -485 -165 -676 -3 -24 -8 -55 -10 -69 -25 -149 -25
-799 0 -839 2 -4 6 -34 10 -66 3 -33 7 -67 9 -75 1 -8 6 -33 10 -55 4 -22 14
-71 23 -110 8 -38 16 -78 18 -88 13 -65 94 -336 114 -382 5 -11 19 -47 32 -80
12 -33 27 -66 32 -72 5 -7 6 -13 3 -13 -4 0 0 -12 8 -28 8 -15 40 -79 70 -142
31 -63 60 -122 65 -130 5 -8 33 -56 61 -107 29 -51 58 -97 66 -104 8 -6 11
-15 8 -20 -3 -5 2 -12 10 -15 9 -3 16 -12 16 -18 0 -7 10 -26 23 -43 12 -16
31 -43 42 -58 113 -158 240 -308 371 -439 105 -106 250 -236 263 -236 6 0 11
-4 11 -8 0 -22 317 -242 495 -344 31 -18 285 -143 320 -158 11 -4 40 -17 65
-28 99 -45 399 -141 490 -158 14 -3 39 -9 55 -14 17 -5 44 -11 60 -14 17 -3
64 -12 105 -20 76 -14 147 -25 210 -32 19 -2 51 -6 70 -9 19 -3 150 -8 290 -9
226 -4 319 0 465 19 22 3 58 7 80 10 37 5 222 39 273 50 257 58 473 133 767
270 44 20 82 36 84 35 2 -1 7 2 10 7 3 5 36 25 72 45 93 51 100 55 218 132 58
38 108 73 109 77 2 5 8 9 13 9 9 0 82 52 99 70 3 3 29 24 58 47 173 136 379
343 526 528 48 61 96 120 106 133 10 12 15 22 12 22 -4 0 -2 4 4 8 15 10 114
159 114 172 0 5 5 10 10 10 6 0 10 7 10 15 0 8 5 15 10 15 6 0 10 5 10 10 0 6
19 43 43 83 42 70 166 317 172 340 1 7 10 30 20 52 28 63 91 240 121 340 6 17
64 249 69 273 14 66 32 168 41 237 3 28 8 58 10 68 19 103 26 561 11 737 -5
52 -10 97 -12 100 -2 3 -6 30 -9 60 -17 159 -86 456 -142 615 -14 38 -27 77
-29 86 -16 77 -180 426 -273 583 -58 99 -178 283 -192 296 -3 3 -23 30 -45 60
-22 30 -44 60 -50 66 -5 6 -28 33 -50 59 -99 119 -230 254 -355 365 -40 36
-79 71 -86 78 -8 7 -14 11 -14 9 0 -3 -15 9 -34 26 -82 76 -296 223 -466 320
-47 27 -280 146 -283 145 -1 0 -23 9 -48 20 -104 47 -410 156 -469 167 -3 0
-25 6 -50 12 -121 32 -200 48 -330 69 -19 3 -46 7 -60 9 -14 3 -47 7 -75 10
-27 3 -68 8 -90 11 -50 7 -540 15 -546 10z"/>
</g>
</svg>
